<svg width="1485" height="783" viewBox="0 0 1485 783" fill="none" xmlns="http://www.w3.org/2000/svg">
<g clip-path="url(#clip0_32_845)">
<rect width="1485" height="783" fill="white"/>
<rect x="271" y="90" width="1195" height="62" fill="#E9E9E9"/>
<path fill-rule="evenodd" clip-rule="evenodd" d="M47.3751 31H0V754H47.3751H189.75H220C225.523 754 230 749.523 230 744V41C230 35.4772 225.523 31 220 31H189.75H47.3751Z" fill="#E9E9E9"/>
<g filter="url(#filter0_d_32_845)">
<circle cx="243" cy="705" r="18.3333" stroke="white" stroke-width="2"/>
<path d="M243 696.667V705" stroke="white" stroke-width="2" stroke-linecap="round" stroke-linejoin="round"/>
<path d="M243 711.667V712.5" stroke="white" stroke-width="2" stroke-linecap="round" stroke-linejoin="round"/>
</g>
<g filter="url(#filter1_d_32_845)">
<rect x="877" y="106" width="560" height="30" rx="5" fill="white"/>
<path d="M1415 121.833L1420 126L1425 121.833H1415Z" fill="#333333" fill-opacity="0.52"/>
</g>
<g filter="url(#filter2_d_32_845)">
<rect x="282" y="105" width="270" height="30" rx="5" fill="white"/>
<path d="M305.368 120.384C305.368 121.856 304.856 123.019 303.832 123.872C302.808 124.725 301.352 125.189 299.464 125.264V126.448H297.544V125.264C295.656 125.168 294.195 124.699 293.16 123.856C292.136 123.013 291.624 121.856 291.624 120.384C291.624 118.912 292.136 117.755 293.16 116.912C294.195 116.059 295.656 115.584 297.544 115.488V114.352H299.464V115.488C301.352 115.584 302.808 116.059 303.832 116.912C304.856 117.755 305.368 118.912 305.368 120.384ZM299.464 123.632C300.744 123.536 301.715 123.216 302.376 122.672C303.037 122.117 303.368 121.349 303.368 120.368C303.368 119.387 303.032 118.624 302.36 118.08C301.699 117.536 300.733 117.221 299.464 117.136V123.632ZM293.656 120.384C293.656 121.355 293.987 122.112 294.648 122.656C295.32 123.2 296.285 123.525 297.544 123.632V117.136C294.952 117.328 293.656 118.411 293.656 120.384ZM307.488 117.456H309.488V123.088L314.208 117.456H316.032V126H314.032V120.368L309.328 126H307.488V117.456ZM326.627 117.456V126H324.627V119.152H321.427L321.347 120.848C321.293 121.979 321.187 122.928 321.027 123.696C320.877 124.453 320.616 125.056 320.243 125.504C319.88 125.941 319.379 126.16 318.739 126.16C318.44 126.16 318.072 126.101 317.635 125.984L317.731 124.304C317.88 124.336 318.008 124.352 318.115 124.352C318.52 124.352 318.824 124.192 319.027 123.872C319.229 123.541 319.357 123.152 319.411 122.704C319.475 122.245 319.528 121.595 319.571 120.752L319.715 117.456H326.627ZM333.768 120.272C334.856 120.272 335.688 120.517 336.264 121.008C336.851 121.499 337.144 122.192 337.144 123.088C337.144 124.027 336.824 124.752 336.184 125.264C335.544 125.776 334.643 126.027 333.48 126.016L329.48 126V117.456H331.48V120.256L333.768 120.272ZM333.304 124.544C333.891 124.555 334.339 124.432 334.648 124.176C334.958 123.92 335.112 123.547 335.112 123.056C335.112 122.576 334.963 122.224 334.664 122C334.366 121.776 333.912 121.659 333.304 121.648L331.48 121.632V124.528L333.304 124.544ZM345.033 119.152H342.041V126H340.041V119.152H337.033V117.456H345.033V119.152ZM351.38 117.36C352.212 117.36 352.953 117.541 353.604 117.904C354.265 118.267 354.783 118.779 355.156 119.44C355.529 120.101 355.716 120.864 355.716 121.728C355.716 122.592 355.529 123.36 355.156 124.032C354.783 124.693 354.265 125.205 353.604 125.568C352.953 125.931 352.212 126.112 351.38 126.112C350.228 126.112 349.316 125.728 348.644 124.96V129.104H346.644V117.456H348.548V118.576C348.879 118.171 349.284 117.867 349.764 117.664C350.255 117.461 350.793 117.36 351.38 117.36ZM351.156 124.4C351.892 124.4 352.495 124.155 352.964 123.664C353.444 123.173 353.684 122.528 353.684 121.728C353.684 120.928 353.444 120.283 352.964 119.792C352.495 119.301 351.892 119.056 351.156 119.056C350.676 119.056 350.244 119.168 349.86 119.392C349.476 119.605 349.172 119.915 348.948 120.32C348.724 120.725 348.612 121.195 348.612 121.728C348.612 122.261 348.724 122.731 348.948 123.136C349.172 123.541 349.476 123.856 349.86 124.08C350.244 124.293 350.676 124.4 351.156 124.4ZM365.68 114.8V126H363.6V116.544H361.232V114.8H365.68Z" fill="black" fill-opacity="0.4"/>
<path d="M523 117.833L528 122L533 117.833H523Z" fill="#333333" fill-opacity="0.52"/>
</g>
<g filter="url(#filter3_d_32_845)">
<rect x="571" y="105" width="270" height="30" rx="5" fill="white"/>
<path d="M594.368 120.384C594.368 121.856 593.856 123.019 592.832 123.872C591.808 124.725 590.352 125.189 588.464 125.264V126.448H586.544V125.264C584.656 125.168 583.195 124.699 582.16 123.856C581.136 123.013 580.624 121.856 580.624 120.384C580.624 118.912 581.136 117.755 582.16 116.912C583.195 116.059 584.656 115.584 586.544 115.488V114.352H588.464V115.488C590.352 115.584 591.808 116.059 592.832 116.912C593.856 117.755 594.368 118.912 594.368 120.384ZM588.464 123.632C589.744 123.536 590.715 123.216 591.376 122.672C592.037 122.117 592.368 121.349 592.368 120.368C592.368 119.387 592.032 118.624 591.36 118.08C590.699 117.536 589.733 117.221 588.464 117.136V123.632ZM582.656 120.384C582.656 121.355 582.987 122.112 583.648 122.656C584.32 123.2 585.285 123.525 586.544 123.632V117.136C583.952 117.328 582.656 118.411 582.656 120.384ZM596.488 117.456H598.488V123.088L603.208 117.456H605.032V126H603.032V120.368L598.328 126H596.488V117.456ZM615.627 117.456V126H613.627V119.152H610.427L610.347 120.848C610.293 121.979 610.187 122.928 610.027 123.696C609.877 124.453 609.616 125.056 609.243 125.504C608.88 125.941 608.379 126.16 607.739 126.16C607.44 126.16 607.072 126.101 606.635 125.984L606.731 124.304C606.88 124.336 607.008 124.352 607.115 124.352C607.52 124.352 607.824 124.192 608.027 123.872C608.229 123.541 608.357 123.152 608.411 122.704C608.475 122.245 608.528 121.595 608.571 120.752L608.715 117.456H615.627ZM622.768 120.272C623.856 120.272 624.688 120.517 625.264 121.008C625.851 121.499 626.144 122.192 626.144 123.088C626.144 124.027 625.824 124.752 625.184 125.264C624.544 125.776 623.643 126.027 622.48 126.016L618.48 126V117.456H620.48V120.256L622.768 120.272ZM622.304 124.544C622.891 124.555 623.339 124.432 623.648 124.176C623.958 123.92 624.112 123.547 624.112 123.056C624.112 122.576 623.963 122.224 623.664 122C623.366 121.776 622.912 121.659 622.304 121.648L620.48 121.632V124.528L622.304 124.544ZM634.033 119.152H631.041V126H629.041V119.152H626.033V117.456H634.033V119.152ZM640.38 117.36C641.212 117.36 641.953 117.541 642.604 117.904C643.265 118.267 643.783 118.779 644.156 119.44C644.529 120.101 644.716 120.864 644.716 121.728C644.716 122.592 644.529 123.36 644.156 124.032C643.783 124.693 643.265 125.205 642.604 125.568C641.953 125.931 641.212 126.112 640.38 126.112C639.228 126.112 638.316 125.728 637.644 124.96V129.104H635.644V117.456H637.548V118.576C637.879 118.171 638.284 117.867 638.764 117.664C639.255 117.461 639.793 117.36 640.38 117.36ZM640.156 124.4C640.892 124.4 641.495 124.155 641.964 123.664C642.444 123.173 642.684 122.528 642.684 121.728C642.684 120.928 642.444 120.283 641.964 119.792C641.495 119.301 640.892 119.056 640.156 119.056C639.676 119.056 639.244 119.168 638.86 119.392C638.476 119.605 638.172 119.915 637.948 120.32C637.724 120.725 637.612 121.195 637.612 121.728C637.612 122.261 637.724 122.731 637.948 123.136C638.172 123.541 638.476 123.856 638.86 124.08C639.244 124.293 639.676 124.4 640.156 124.4ZM658.92 124.24V126H650.664V124.608L655.112 120.384C655.614 119.904 655.95 119.488 656.12 119.136C656.302 118.773 656.392 118.416 656.392 118.064C656.392 117.541 656.216 117.141 655.864 116.864C655.512 116.587 654.995 116.448 654.312 116.448C653.171 116.448 652.296 116.837 651.688 117.616L650.232 116.496C650.67 115.909 651.256 115.456 651.992 115.136C652.739 114.805 653.571 114.64 654.488 114.64C655.704 114.64 656.675 114.928 657.4 115.504C658.126 116.08 658.488 116.864 658.488 117.856C658.488 118.464 658.36 119.035 658.104 119.568C657.848 120.101 657.358 120.709 656.632 121.392L653.64 124.24H658.92Z" fill="black" fill-opacity="0.4"/>
<path d="M812 117.833L817 122L822 117.833H812Z" fill="#333333" fill-opacity="0.52"/>
</g>
<path d="M901.368 121.384C901.368 122.856 900.856 124.019 899.832 124.872C898.808 125.725 897.352 126.189 895.464 126.264V127.448H893.544V126.264C891.656 126.168 890.195 125.699 889.16 124.856C888.136 124.013 887.624 122.856 887.624 121.384C887.624 119.912 888.136 118.755 889.16 117.912C890.195 117.059 891.656 116.584 893.544 116.488V115.352H895.464V116.488C897.352 116.584 898.808 117.059 899.832 117.912C900.856 118.755 901.368 119.912 901.368 121.384ZM895.464 124.632C896.744 124.536 897.715 124.216 898.376 123.672C899.037 123.117 899.368 122.349 899.368 121.368C899.368 120.387 899.032 119.624 898.36 119.08C897.699 118.536 896.733 118.221 895.464 118.136V124.632ZM889.656 121.384C889.656 122.355 889.987 123.112 890.648 123.656C891.32 124.2 892.285 124.525 893.544 124.632V118.136C890.952 118.328 889.656 119.411 889.656 121.384ZM903.488 118.456H905.488V124.088L910.208 118.456H912.032V127H910.032V121.368L905.328 127H903.488V118.456ZM922.627 118.456V127H920.627V120.152H917.427L917.347 121.848C917.293 122.979 917.187 123.928 917.027 124.696C916.877 125.453 916.616 126.056 916.243 126.504C915.88 126.941 915.379 127.16 914.739 127.16C914.44 127.16 914.072 127.101 913.635 126.984L913.731 125.304C913.88 125.336 914.008 125.352 914.115 125.352C914.52 125.352 914.824 125.192 915.027 124.872C915.229 124.541 915.357 124.152 915.411 123.704C915.475 123.245 915.528 122.595 915.571 121.752L915.715 118.456H922.627ZM929.768 121.272C930.856 121.272 931.688 121.517 932.264 122.008C932.851 122.499 933.144 123.192 933.144 124.088C933.144 125.027 932.824 125.752 932.184 126.264C931.544 126.776 930.643 127.027 929.48 127.016L925.48 127V118.456H927.48V121.256L929.768 121.272ZM929.304 125.544C929.891 125.555 930.339 125.432 930.648 125.176C930.958 124.92 931.112 124.547 931.112 124.056C931.112 123.576 930.963 123.224 930.664 123C930.366 122.776 929.912 122.659 929.304 122.648L927.48 122.632V125.528L929.304 125.544ZM941.033 120.152H938.041V127H936.041V120.152H933.033V118.456H941.033V120.152ZM947.38 118.36C948.212 118.36 948.953 118.541 949.604 118.904C950.265 119.267 950.783 119.779 951.156 120.44C951.529 121.101 951.716 121.864 951.716 122.728C951.716 123.592 951.529 124.36 951.156 125.032C950.783 125.693 950.265 126.205 949.604 126.568C948.953 126.931 948.212 127.112 947.38 127.112C946.228 127.112 945.316 126.728 944.644 125.96V130.104H942.644V118.456H944.548V119.576C944.879 119.171 945.284 118.867 945.764 118.664C946.255 118.461 946.793 118.36 947.38 118.36ZM947.156 125.4C947.892 125.4 948.495 125.155 948.964 124.664C949.444 124.173 949.684 123.528 949.684 122.728C949.684 121.928 949.444 121.283 948.964 120.792C948.495 120.301 947.892 120.056 947.156 120.056C946.676 120.056 946.244 120.168 945.86 120.392C945.476 120.605 945.172 120.915 944.948 121.32C944.724 121.725 944.612 122.195 944.612 122.728C944.612 123.261 944.724 123.731 944.948 124.136C945.172 124.541 945.476 124.856 945.86 125.08C946.244 125.293 946.676 125.4 947.156 125.4ZM962.576 120.424C963.611 120.552 964.4 120.904 964.944 121.48C965.488 122.056 965.76 122.776 965.76 123.64C965.76 124.291 965.595 124.883 965.264 125.416C964.934 125.949 964.432 126.376 963.76 126.696C963.099 127.005 962.288 127.16 961.328 127.16C960.528 127.16 959.755 127.048 959.008 126.824C958.272 126.589 957.643 126.269 957.12 125.864L958.016 124.248C958.422 124.589 958.912 124.861 959.488 125.064C960.075 125.256 960.678 125.352 961.296 125.352C962.032 125.352 962.608 125.203 963.024 124.904C963.451 124.595 963.664 124.179 963.664 123.656C963.664 123.133 963.462 122.728 963.056 122.44C962.662 122.141 962.054 121.992 961.232 121.992H960.208V120.568L962.752 117.544H957.664V115.8H965.296V117.192L962.576 120.424Z" fill="black" fill-opacity="0.4"/>
<path d="M299.618 37.6V67H292.814V54.946H279.458V67H272.654V37.6H279.458V49.192H292.814V37.6H299.618ZM315.258 44.068C318.758 44.068 321.446 44.908 323.322 46.588C325.198 48.24 326.136 50.746 326.136 54.106V67H320.004V64.186C318.772 66.286 316.476 67.336 313.116 67.336C311.38 67.336 309.868 67.042 308.58 66.454C307.32 65.866 306.354 65.054 305.682 64.018C305.01 62.982 304.674 61.806 304.674 60.49C304.674 58.39 305.458 56.738 307.026 55.534C308.622 54.33 311.072 53.728 314.376 53.728H319.584C319.584 52.3 319.15 51.208 318.282 50.452C317.414 49.668 316.112 49.276 314.376 49.276C313.172 49.276 311.982 49.472 310.806 49.864C309.658 50.228 308.678 50.732 307.866 51.376L305.514 46.798C306.746 45.93 308.216 45.258 309.924 44.782C311.66 44.306 313.438 44.068 315.258 44.068ZM314.754 62.926C315.874 62.926 316.868 62.674 317.736 62.17C318.604 61.638 319.22 60.868 319.584 59.86V57.55H315.09C312.402 57.55 311.058 58.432 311.058 60.196C311.058 61.036 311.38 61.708 312.024 62.212C312.696 62.688 313.606 62.926 314.754 62.926ZM346.281 55.24C347.625 55.66 348.661 56.304 349.389 57.172C350.145 58.04 350.523 59.076 350.523 60.28C350.523 61.708 350.033 62.968 349.053 64.06C348.073 65.124 346.729 65.95 345.021 66.538C343.313 67.126 341.381 67.42 339.225 67.42C337.461 67.42 335.725 67.238 334.017 66.874C332.309 66.51 330.727 65.964 329.271 65.236L331.035 60.658C333.415 61.806 336.047 62.38 338.931 62.38C340.471 62.38 341.675 62.156 342.543 61.708C343.439 61.232 343.887 60.574 343.887 59.734C343.887 59.006 343.579 58.46 342.963 58.096C342.347 57.704 341.451 57.508 340.275 57.508H335.655V53.434H339.687C340.835 53.434 341.717 53.252 342.333 52.888C342.949 52.524 343.257 51.992 343.257 51.292C343.257 50.564 342.865 50.004 342.081 49.612C341.325 49.22 340.233 49.024 338.805 49.024C336.621 49.024 334.241 49.542 331.665 50.578L330.069 46.042C333.205 44.67 336.257 43.984 339.225 43.984C341.269 43.984 343.089 44.236 344.685 44.74C346.309 45.244 347.583 45.986 348.507 46.966C349.431 47.918 349.893 49.038 349.893 50.326C349.893 51.39 349.571 52.356 348.927 53.224C348.283 54.064 347.401 54.736 346.281 55.24ZM372.551 55.198C375.211 56.094 376.541 57.886 376.541 60.574C376.541 62.618 375.771 64.2 374.231 65.32C372.691 66.44 370.395 67 367.343 67H355.289V44.404H366.839C369.667 44.404 371.879 44.922 373.475 45.958C375.071 46.966 375.869 48.394 375.869 50.242C375.869 51.362 375.575 52.356 374.987 53.224C374.427 54.064 373.615 54.722 372.551 55.198ZM361.295 53.686H366.251C368.547 53.686 369.695 52.874 369.695 51.25C369.695 49.654 368.547 48.856 366.251 48.856H361.295V53.686ZM366.797 62.548C369.205 62.548 370.409 61.722 370.409 60.07C370.409 59.202 370.129 58.572 369.569 58.18C369.009 57.76 368.127 57.55 366.923 57.55H361.295V62.548H366.797ZM390.194 44.068C393.694 44.068 396.382 44.908 398.258 46.588C400.134 48.24 401.072 50.746 401.072 54.106V67H394.94V64.186C393.708 66.286 391.412 67.336 388.052 67.336C386.316 67.336 384.804 67.042 383.516 66.454C382.256 65.866 381.29 65.054 380.618 64.018C379.946 62.982 379.61 61.806 379.61 60.49C379.61 58.39 380.394 56.738 381.962 55.534C383.558 54.33 386.008 53.728 389.312 53.728H394.52C394.52 52.3 394.086 51.208 393.218 50.452C392.35 49.668 391.048 49.276 389.312 49.276C388.108 49.276 386.918 49.472 385.742 49.864C384.594 50.228 383.614 50.732 382.802 51.376L380.45 46.798C381.682 45.93 383.152 45.258 384.86 44.782C386.596 44.306 388.374 44.068 390.194 44.068ZM389.69 62.926C390.81 62.926 391.804 62.674 392.672 62.17C393.54 61.638 394.156 60.868 394.52 59.86V57.55H390.026C387.338 57.55 385.994 58.432 385.994 60.196C385.994 61.036 386.316 61.708 386.96 62.212C387.632 62.688 388.542 62.926 389.69 62.926ZM406.763 44.404H413.273V53.224H423.101V44.404H429.653V67H423.101V58.558H413.273V67H406.763V44.404ZM435.925 44.404H442.435V57.844L453.439 44.404H459.445V67H452.935V53.56L441.973 67H435.925V44.404ZM487.71 55.786C487.71 55.87 487.668 56.458 487.584 57.55H470.49C470.798 58.95 471.526 60.056 472.674 60.868C473.822 61.68 475.25 62.086 476.958 62.086C478.134 62.086 479.17 61.918 480.066 61.582C480.99 61.218 481.844 60.658 482.628 59.902L486.114 63.682C483.986 66.118 480.878 67.336 476.79 67.336C474.242 67.336 471.988 66.846 470.028 65.866C468.068 64.858 466.556 63.472 465.492 61.708C464.428 59.944 463.896 57.942 463.896 55.702C463.896 53.49 464.414 51.502 465.45 49.738C466.514 47.946 467.956 46.56 469.776 45.58C471.624 44.572 473.682 44.068 475.95 44.068C478.162 44.068 480.164 44.544 481.956 45.496C483.748 46.448 485.148 47.82 486.156 49.612C487.192 51.376 487.71 53.434 487.71 55.786ZM475.992 49.024C474.508 49.024 473.262 49.444 472.254 50.284C471.246 51.124 470.63 52.272 470.406 53.728H481.536C481.312 52.3 480.696 51.166 479.688 50.326C478.68 49.458 477.448 49.024 475.992 49.024ZM529.953 61.624V71.872H523.863V67H507.987V71.872H501.897V61.624H502.821C504.221 61.596 505.187 60.77 505.719 59.146C506.251 57.522 506.587 55.212 506.727 52.216L507.021 44.404H526.719V61.624H529.953ZM512.649 52.678C512.565 54.974 512.383 56.85 512.103 58.306C511.851 59.762 511.361 60.868 510.633 61.624H520.167V49.78H512.775L512.649 52.678ZM542.854 44.068C546.354 44.068 549.042 44.908 550.918 46.588C552.794 48.24 553.732 50.746 553.732 54.106V67H547.6V64.186C546.368 66.286 544.072 67.336 540.712 67.336C538.976 67.336 537.464 67.042 536.176 66.454C534.916 65.866 533.95 65.054 533.278 64.018C532.606 62.982 532.27 61.806 532.27 60.49C532.27 58.39 533.054 56.738 534.622 55.534C536.218 54.33 538.668 53.728 541.972 53.728H547.18C547.18 52.3 546.746 51.208 545.878 50.452C545.01 49.668 543.708 49.276 541.972 49.276C540.768 49.276 539.578 49.472 538.402 49.864C537.254 50.228 536.274 50.732 535.462 51.376L533.11 46.798C534.342 45.93 535.812 45.258 537.52 44.782C539.256 44.306 541.034 44.068 542.854 44.068ZM542.35 62.926C543.47 62.926 544.464 62.674 545.332 62.17C546.2 61.638 546.816 60.868 547.18 59.86V57.55H542.686C539.998 57.55 538.654 58.432 538.654 60.196C538.654 61.036 538.976 61.708 539.62 62.212C540.292 62.688 541.202 62.926 542.35 62.926ZM593.905 44.404V67H559.423V44.404H565.933V61.624H573.451V44.404H579.961V61.624H587.395V44.404H593.905ZM613.255 45.958C615.411 45.958 617.301 46.406 618.925 47.302C620.549 48.17 621.795 49.402 622.663 50.998C623.559 52.594 624.007 54.442 624.007 56.542C624.007 58.698 623.475 60.616 622.411 62.296C621.375 63.948 619.919 65.236 618.043 66.16C616.167 67.056 614.039 67.504 611.659 67.504C607.711 67.504 604.603 66.244 602.335 63.724C600.095 61.176 598.975 57.452 598.975 52.552C598.975 48.016 599.955 44.404 601.915 41.716C603.903 39 606.941 37.222 611.029 36.382L621.781 34.24L622.663 39.868L613.171 41.758C610.595 42.262 608.677 43.102 607.417 44.278C606.185 45.454 605.457 47.12 605.233 49.276C606.213 48.212 607.389 47.4 608.761 46.84C610.133 46.252 611.631 45.958 613.255 45.958ZM611.701 62.422C613.381 62.422 614.725 61.876 615.733 60.784C616.769 59.692 617.287 58.306 617.287 56.626C617.287 54.918 616.769 53.56 615.733 52.552C614.725 51.544 613.381 51.04 611.701 51.04C609.993 51.04 608.621 51.544 607.585 52.552C606.549 53.56 606.031 54.918 606.031 56.626C606.031 58.334 606.563 59.734 607.627 60.826C608.691 61.89 610.049 62.422 611.701 62.422ZM639.037 67.336C636.657 67.336 634.515 66.846 632.611 65.866C630.735 64.858 629.265 63.472 628.201 61.708C627.137 59.944 626.605 57.942 626.605 55.702C626.605 53.462 627.137 51.46 628.201 49.696C629.265 47.932 630.735 46.56 632.611 45.58C634.515 44.572 636.657 44.068 639.037 44.068C641.417 44.068 643.545 44.572 645.421 45.58C647.297 46.56 648.767 47.932 649.831 49.696C650.895 51.46 651.427 53.462 651.427 55.702C651.427 57.942 650.895 59.944 649.831 61.708C648.767 63.472 647.297 64.858 645.421 65.866C643.545 66.846 641.417 67.336 639.037 67.336ZM639.037 61.96C640.717 61.96 642.089 61.4 643.153 60.28C644.245 59.132 644.791 57.606 644.791 55.702C644.791 53.798 644.245 52.286 643.153 51.166C642.089 50.018 640.717 49.444 639.037 49.444C637.357 49.444 635.971 50.018 634.879 51.166C633.787 52.286 633.241 53.798 633.241 55.702C633.241 57.606 633.787 59.132 634.879 60.28C635.971 61.4 637.357 61.96 639.037 61.96ZM669.247 44.068C671.347 44.068 673.251 44.558 674.959 45.538C676.695 46.49 678.053 47.848 679.033 49.612C680.013 51.348 680.503 53.378 680.503 55.702C680.503 58.026 680.013 60.07 679.033 61.834C678.053 63.57 676.695 64.928 674.959 65.908C673.251 66.86 671.347 67.336 669.247 67.336C666.363 67.336 664.095 66.426 662.443 64.606V75.148H655.891V44.404H662.149V47.008C663.773 45.048 666.139 44.068 669.247 44.068ZM668.113 61.96C669.793 61.96 671.165 61.4 672.229 60.28C673.321 59.132 673.867 57.606 673.867 55.702C673.867 53.798 673.321 52.286 672.229 51.166C671.165 50.018 669.793 49.444 668.113 49.444C666.433 49.444 665.047 50.018 663.955 51.166C662.891 52.286 662.359 53.798 662.359 55.702C662.359 57.606 662.891 59.132 663.955 60.28C665.047 61.4 666.433 61.96 668.113 61.96ZM710.093 61.624V71.872H704.003V67H688.127V71.872H682.037V61.624H682.961C684.361 61.596 685.327 60.77 685.859 59.146C686.391 57.522 686.727 55.212 686.867 52.216L687.161 44.404H706.859V61.624H710.093ZM692.789 52.678C692.705 54.974 692.523 56.85 692.243 58.306C691.991 59.762 691.501 60.868 690.773 61.624H700.307V49.78H692.915L692.789 52.678ZM722.994 44.068C726.494 44.068 729.182 44.908 731.058 46.588C732.934 48.24 733.872 50.746 733.872 54.106V67H727.74V64.186C726.508 66.286 724.212 67.336 720.852 67.336C719.116 67.336 717.604 67.042 716.316 66.454C715.056 65.866 714.09 65.054 713.418 64.018C712.746 62.982 712.41 61.806 712.41 60.49C712.41 58.39 713.194 56.738 714.762 55.534C716.358 54.33 718.808 53.728 722.112 53.728H727.32C727.32 52.3 726.886 51.208 726.018 50.452C725.15 49.668 723.848 49.276 722.112 49.276C720.908 49.276 719.718 49.472 718.542 49.864C717.394 50.228 716.414 50.732 715.602 51.376L713.25 46.798C714.482 45.93 715.952 45.258 717.66 44.782C719.396 44.306 721.174 44.068 722.994 44.068ZM722.49 62.926C723.61 62.926 724.604 62.674 725.472 62.17C726.34 61.638 726.956 60.868 727.32 59.86V57.55H722.826C720.138 57.55 718.794 58.432 718.794 60.196C718.794 61.036 719.116 61.708 719.76 62.212C720.432 62.688 721.342 62.926 722.49 62.926Z" fill="#333333" fill-opacity="0.4"/>
<path d="M293.36 180.144H279.374L279.416 204H272.654V174.6H293.402L293.36 180.144ZM308.105 181.068C310.205 181.068 312.109 181.558 313.817 182.538C315.553 183.49 316.911 184.848 317.891 186.612C318.871 188.348 319.361 190.378 319.361 192.702C319.361 195.026 318.871 197.07 317.891 198.834C316.911 200.57 315.553 201.928 313.817 202.908C312.109 203.86 310.205 204.336 308.105 204.336C305.221 204.336 302.953 203.426 301.301 201.606V212.148H294.749V181.404H301.007V184.008C302.631 182.048 304.997 181.068 308.105 181.068ZM306.971 198.96C308.651 198.96 310.023 198.4 311.087 197.28C312.179 196.132 312.725 194.606 312.725 192.702C312.725 190.798 312.179 189.286 311.087 188.166C310.023 187.018 308.651 186.444 306.971 186.444C305.291 186.444 303.905 187.018 302.813 188.166C301.749 189.286 301.217 190.798 301.217 192.702C301.217 194.606 301.749 196.132 302.813 197.28C303.905 198.4 305.291 198.96 306.971 198.96ZM332.362 181.068C335.862 181.068 338.55 181.908 340.426 183.588C342.302 185.24 343.24 187.746 343.24 191.106V204H337.108V201.186C335.876 203.286 333.58 204.336 330.22 204.336C328.484 204.336 326.972 204.042 325.684 203.454C324.424 202.866 323.458 202.054 322.786 201.018C322.114 199.982 321.778 198.806 321.778 197.49C321.778 195.39 322.562 193.738 324.13 192.534C325.726 191.33 328.176 190.728 331.48 190.728H336.688C336.688 189.3 336.254 188.208 335.386 187.452C334.518 186.668 333.216 186.276 331.48 186.276C330.276 186.276 329.086 186.472 327.91 186.864C326.762 187.228 325.782 187.732 324.97 188.376L322.618 183.798C323.85 182.93 325.32 182.258 327.028 181.782C328.764 181.306 330.542 181.068 332.362 181.068ZM331.858 199.926C332.978 199.926 333.972 199.674 334.84 199.17C335.708 198.638 336.324 197.868 336.688 196.86V194.55H332.194C329.506 194.55 328.162 195.432 328.162 197.196C328.162 198.036 328.484 198.708 329.128 199.212C329.8 199.688 330.71 199.926 331.858 199.926ZM380.137 192.618C380.137 196.118 378.961 198.89 376.609 200.934C374.285 202.95 370.953 204.112 366.613 204.42V212.148H360.607V204.42C356.267 204.112 352.921 202.964 350.569 200.976C348.245 198.96 347.083 196.174 347.083 192.618C347.083 189.118 348.231 186.402 350.527 184.47C352.851 182.538 356.211 181.418 360.607 181.11V172.836H366.613V181.11C370.953 181.418 374.285 182.552 376.609 184.512C378.961 186.472 380.137 189.174 380.137 192.618ZM353.425 192.618C353.425 194.634 353.999 196.188 355.147 197.28C356.295 198.372 358.115 199.058 360.607 199.338V186.192C358.115 186.444 356.295 187.102 355.147 188.166C353.999 189.202 353.425 190.686 353.425 192.618ZM366.613 199.338C369.105 199.058 370.925 198.372 372.073 197.28C373.249 196.188 373.837 194.634 373.837 192.618C373.837 190.686 373.249 189.202 372.073 188.166C370.925 187.102 369.105 186.444 366.613 186.192V199.338ZM384.574 181.404H391.084V194.844L402.088 181.404H408.094V204H401.584V190.56L390.622 204H384.574V181.404ZM424.346 195.432H420.944V204H414.392V181.404H420.944V190.182H424.472L430.604 181.404H437.576L429.68 192.24L438.122 204H430.394L424.346 195.432ZM441.339 181.404H447.849V194.844L458.853 181.404H464.859V204H458.349V190.56L447.387 204H441.339V181.404Z" fill="#333333" fill-opacity="0.7"/>
<path d="M63.4 268.2C61.9867 268.2 60.7067 267.893 59.56 267.28C58.4267 266.653 57.5333 265.793 56.88 264.7C56.24 263.607 55.92 262.373 55.92 261C55.92 259.627 56.2467 258.393 56.9 257.3C57.5533 256.207 58.4467 255.353 59.58 254.74C60.7267 254.113 62.0067 253.8 63.42 253.8C64.5667 253.8 65.6133 254 66.56 254.4C67.5067 254.8 68.3067 255.38 68.96 256.14L67.28 257.72C66.2667 256.627 65.02 256.08 63.54 256.08C62.58 256.08 61.72 256.293 60.96 256.72C60.2 257.133 59.6067 257.713 59.18 258.46C58.7533 259.207 58.54 260.053 58.54 261C58.54 261.947 58.7533 262.793 59.18 263.54C59.6067 264.287 60.2 264.873 60.96 265.3C61.72 265.713 62.58 265.92 63.54 265.92C65.02 265.92 66.2667 265.367 67.28 264.26L68.96 265.86C68.3067 266.62 67.5 267.2 66.54 267.6C65.5933 268 64.5467 268.2 63.4 268.2ZM79.4611 259.44H75.7211V268H73.2211V259.44H69.4611V257.32H79.4611V259.44ZM87.3945 257.2C88.4345 257.2 89.3612 257.427 90.1745 257.88C91.0012 258.333 91.6479 258.973 92.1145 259.8C92.5812 260.627 92.8145 261.58 92.8145 262.66C92.8145 263.74 92.5812 264.7 92.1145 265.54C91.6479 266.367 91.0012 267.007 90.1745 267.46C89.3612 267.913 88.4345 268.14 87.3945 268.14C85.9545 268.14 84.8145 267.66 83.9745 266.7V271.88H81.4745V257.32H83.8545V258.72C84.2679 258.213 84.7745 257.833 85.3745 257.58C85.9879 257.327 86.6612 257.2 87.3945 257.2ZM87.1145 266C88.0345 266 88.7879 265.693 89.3745 265.08C89.9745 264.467 90.2745 263.66 90.2745 262.66C90.2745 261.66 89.9745 260.853 89.3745 260.24C88.7879 259.627 88.0345 259.32 87.1145 259.32C86.5145 259.32 85.9745 259.46 85.4945 259.74C85.0145 260.007 84.6345 260.393 84.3545 260.9C84.0745 261.407 83.9345 261.993 83.9345 262.66C83.9345 263.327 84.0745 263.913 84.3545 264.42C84.6345 264.927 85.0145 265.32 85.4945 265.6C85.9745 265.867 86.5145 266 87.1145 266ZM99.3459 257.2C100.919 257.2 102.119 257.58 102.946 258.34C103.786 259.087 104.206 260.22 104.206 261.74V268H101.846V266.7C101.539 267.167 101.099 267.527 100.526 267.78C99.9659 268.02 99.2859 268.14 98.4859 268.14C97.6859 268.14 96.9859 268.007 96.3859 267.74C95.7859 267.46 95.3193 267.08 94.9859 266.6C94.6659 266.107 94.5059 265.553 94.5059 264.94C94.5059 263.98 94.8593 263.213 95.5659 262.64C96.2859 262.053 97.4126 261.76 98.9459 261.76H101.706V261.6C101.706 260.853 101.479 260.28 101.026 259.88C100.586 259.48 99.9259 259.28 99.0459 259.28C98.4459 259.28 97.8526 259.373 97.2659 259.56C96.6926 259.747 96.2059 260.007 95.8059 260.34L94.8259 258.52C95.3859 258.093 96.0593 257.767 96.8459 257.54C97.6326 257.313 98.4659 257.2 99.3459 257.2ZM99.0059 266.32C99.6326 266.32 100.186 266.18 100.666 265.9C101.159 265.607 101.506 265.193 101.706 264.66V263.42H99.1259C97.6859 263.42 96.9659 263.893 96.9659 264.84C96.9659 265.293 97.1459 265.653 97.5059 265.92C97.8659 266.187 98.3659 266.32 99.0059 266.32ZM107.5 257.32H110V261.66H115.38V257.32H117.88V268H115.38V263.78H110V268H107.5V257.32ZM121.43 257.32H123.93V264.36L129.83 257.32H132.11V268H129.61V260.96L123.73 268H121.43V257.32ZM147.393 265.88V270.46H145.053V268H135.673V257.32H138.173V265.88H143.273V257.32H145.773V265.88H147.393ZM153.798 257.2C155.372 257.2 156.572 257.58 157.398 258.34C158.238 259.087 158.658 260.22 158.658 261.74V268H156.298V266.7C155.992 267.167 155.552 267.527 154.978 267.78C154.418 268.02 153.738 268.14 152.938 268.14C152.138 268.14 151.438 268.007 150.838 267.74C150.238 267.46 149.772 267.08 149.438 266.6C149.118 266.107 148.958 265.553 148.958 264.94C148.958 263.98 149.312 263.213 150.018 262.64C150.738 262.053 151.865 261.76 153.398 261.76H156.158V261.6C156.158 260.853 155.932 260.28 155.478 259.88C155.038 259.48 154.378 259.28 153.498 259.28C152.898 259.28 152.305 259.373 151.718 259.56C151.145 259.747 150.658 260.007 150.258 260.34L149.278 258.52C149.838 258.093 150.512 257.767 151.298 257.54C152.085 257.313 152.918 257.2 153.798 257.2ZM153.458 266.32C154.085 266.32 154.638 266.18 155.118 265.9C155.612 265.607 155.958 265.193 156.158 264.66V263.42H153.578C152.138 263.42 151.418 263.893 151.418 264.84C151.418 265.293 151.598 265.653 151.958 265.92C152.318 266.187 152.818 266.32 153.458 266.32ZM177.019 265.8V268H166.699V266.26L172.259 260.98C172.886 260.38 173.306 259.86 173.519 259.42C173.746 258.967 173.859 258.52 173.859 258.08C173.859 257.427 173.639 256.927 173.199 256.58C172.759 256.233 172.113 256.06 171.259 256.06C169.833 256.06 168.739 256.547 167.979 257.52L166.159 256.12C166.706 255.387 167.439 254.82 168.359 254.42C169.293 254.007 170.333 253.8 171.479 253.8C172.999 253.8 174.213 254.16 175.119 254.88C176.026 255.6 176.479 256.58 176.479 257.82C176.479 258.58 176.319 259.293 175.999 259.96C175.679 260.627 175.066 261.387 174.159 262.24L170.419 265.8H177.019Z" fill="#BDBDBD"/>
<g filter="url(#filter4_d_32_845)">
<path d="M230 172H0V229H230V172Z" fill="#FFFEFF"/>
</g>
<path d="M63.4 208.2C61.9867 208.2 60.7067 207.893 59.56 207.28C58.4267 206.653 57.5333 205.793 56.88 204.7C56.24 203.607 55.92 202.373 55.92 201C55.92 199.627 56.2467 198.393 56.9 197.3C57.5533 196.207 58.4467 195.353 59.58 194.74C60.7267 194.113 62.0067 193.8 63.42 193.8C64.5667 193.8 65.6133 194 66.56 194.4C67.5067 194.8 68.3067 195.38 68.96 196.14L67.28 197.72C66.2667 196.627 65.02 196.08 63.54 196.08C62.58 196.08 61.72 196.293 60.96 196.72C60.2 197.133 59.6067 197.713 59.18 198.46C58.7533 199.207 58.54 200.053 58.54 201C58.54 201.947 58.7533 202.793 59.18 203.54C59.6067 204.287 60.2 204.873 60.96 205.3C61.72 205.713 62.58 205.92 63.54 205.92C65.02 205.92 66.2667 205.367 67.28 204.26L68.96 205.86C68.3067 206.62 67.5 207.2 66.54 207.6C65.5933 208 64.5467 208.2 63.4 208.2ZM79.4611 199.44H75.7211V208H73.2211V199.44H69.4611V197.32H79.4611V199.44ZM87.3945 197.2C88.4345 197.2 89.3612 197.427 90.1745 197.88C91.0012 198.333 91.6479 198.973 92.1145 199.8C92.5812 200.627 92.8145 201.58 92.8145 202.66C92.8145 203.74 92.5812 204.7 92.1145 205.54C91.6479 206.367 91.0012 207.007 90.1745 207.46C89.3612 207.913 88.4345 208.14 87.3945 208.14C85.9545 208.14 84.8145 207.66 83.9745 206.7V211.88H81.4745V197.32H83.8545V198.72C84.2679 198.213 84.7745 197.833 85.3745 197.58C85.9879 197.327 86.6612 197.2 87.3945 197.2ZM87.1145 206C88.0345 206 88.7879 205.693 89.3745 205.08C89.9745 204.467 90.2745 203.66 90.2745 202.66C90.2745 201.66 89.9745 200.853 89.3745 200.24C88.7879 199.627 88.0345 199.32 87.1145 199.32C86.5145 199.32 85.9745 199.46 85.4945 199.74C85.0145 200.007 84.6345 200.393 84.3545 200.9C84.0745 201.407 83.9345 201.993 83.9345 202.66C83.9345 203.327 84.0745 203.913 84.3545 204.42C84.6345 204.927 85.0145 205.32 85.4945 205.6C85.9745 205.867 86.5145 206 87.1145 206ZM99.3459 197.2C100.919 197.2 102.119 197.58 102.946 198.34C103.786 199.087 104.206 200.22 104.206 201.74V208H101.846V206.7C101.539 207.167 101.099 207.527 100.526 207.78C99.9659 208.02 99.2859 208.14 98.4859 208.14C97.6859 208.14 96.9859 208.007 96.3859 207.74C95.7859 207.46 95.3193 207.08 94.9859 206.6C94.6659 206.107 94.5059 205.553 94.5059 204.94C94.5059 203.98 94.8593 203.213 95.5659 202.64C96.2859 202.053 97.4126 201.76 98.9459 201.76H101.706V201.6C101.706 200.853 101.479 200.28 101.026 199.88C100.586 199.48 99.9259 199.28 99.0459 199.28C98.4459 199.28 97.8526 199.373 97.2659 199.56C96.6926 199.747 96.2059 200.007 95.8059 200.34L94.8259 198.52C95.3859 198.093 96.0593 197.767 96.8459 197.54C97.6326 197.313 98.4659 197.2 99.3459 197.2ZM99.0059 206.32C99.6326 206.32 100.186 206.18 100.666 205.9C101.159 205.607 101.506 205.193 101.706 204.66V203.42H99.1259C97.6859 203.42 96.9659 203.893 96.9659 204.84C96.9659 205.293 97.1459 205.653 97.5059 205.92C97.8659 206.187 98.3659 206.32 99.0059 206.32ZM107.5 197.32H110V201.66H115.38V197.32H117.88V208H115.38V203.78H110V208H107.5V197.32ZM121.43 197.32H123.93V204.36L129.83 197.32H132.11V208H129.61V200.96L123.73 208H121.43V197.32ZM147.393 205.88V210.46H145.053V208H135.673V197.32H138.173V205.88H143.273V197.32H145.773V205.88H147.393ZM153.798 197.2C155.372 197.2 156.572 197.58 157.398 198.34C158.238 199.087 158.658 200.22 158.658 201.74V208H156.298V206.7C155.992 207.167 155.552 207.527 154.978 207.78C154.418 208.02 153.738 208.14 152.938 208.14C152.138 208.14 151.438 208.007 150.838 207.74C150.238 207.46 149.772 207.08 149.438 206.6C149.118 206.107 148.958 205.553 148.958 204.94C148.958 203.98 149.312 203.213 150.018 202.64C150.738 202.053 151.865 201.76 153.398 201.76H156.158V201.6C156.158 200.853 155.932 200.28 155.478 199.88C155.038 199.48 154.378 199.28 153.498 199.28C152.898 199.28 152.305 199.373 151.718 199.56C151.145 199.747 150.658 200.007 150.258 200.34L149.278 198.52C149.838 198.093 150.512 197.767 151.298 197.54C152.085 197.313 152.918 197.2 153.798 197.2ZM153.458 206.32C154.085 206.32 154.638 206.18 155.118 205.9C155.612 205.607 155.958 205.193 156.158 204.66V203.42H153.578C152.138 203.42 151.418 203.893 151.418 204.84C151.418 205.293 151.598 205.653 151.958 205.92C152.318 206.187 152.818 206.32 153.458 206.32ZM171.719 194V208H169.119V196.18H166.159V194H171.719Z" fill="black" fill-opacity="0.4"/>
<rect x="19" y="189" width="18" height="20" rx="2" stroke="#807F80" stroke-opacity="0.4" stroke-width="2" stroke-linecap="round" stroke-linejoin="round"/>
<path d="M19 195H37" stroke="#807F80" stroke-opacity="0.4" stroke-width="2" stroke-linecap="round" stroke-linejoin="round"/>
<path d="M25.5 195V209" stroke="#807F80" stroke-opacity="0.4" stroke-width="2" stroke-linecap="round" stroke-linejoin="round"/>
<g filter="url(#filter5_d_32_845)">
<path d="M22.001 254C18.6873 254 16.001 256.686 16.001 260V264C16.001 264.24 16.0151 264.477 16.0426 264.71C16.0149 264.802 16 264.899 16 265V273.826C16 274.68 17.0021 275.141 17.6508 274.585L22.4383 270.481C22.8008 270.171 23.2624 270 23.7398 270H34.001C37.3147 270 40.001 267.314 40.001 264V260C40.001 256.686 37.3147 254 34.001 254H22.001Z" stroke="#BDBDBD" stroke-width="2"/>
</g>
<path d="M270 235C270 231.686 272.686 229 276 229H1461C1464.31 229 1467 231.686 1467 235V766C1467 769.314 1464.31 772 1461 772H276C272.686 772 270 769.314 270 766V235Z" fill="#C4C4C4" fill-opacity="0.25"/>
</g>
<defs>
<filter id="filter0_d_32_845" x="219" y="685" width="48" height="48" filterUnits="userSpaceOnUse" color-interpolation-filters="sRGB">
<feFlood flood-opacity="0" result="BackgroundImageFix"/>
<feColorMatrix in="SourceAlpha" type="matrix" values="0 0 0 0 0 0 0 0 0 0 0 0 0 0 0 0 0 0 127 0" result="hardAlpha"/>
<feOffset dy="4"/>
<feGaussianBlur stdDeviation="2"/>
<feComposite in2="hardAlpha" operator="out"/>
<feColorMatrix type="matrix" values="0 0 0 0 0 0 0 0 0 0 0 0 0 0 0 0 0 0 0.25 0"/>
<feBlend mode="normal" in2="BackgroundImageFix" result="effect1_dropShadow_32_845"/>
<feBlend mode="normal" in="SourceGraphic" in2="effect1_dropShadow_32_845" result="shape"/>
</filter>
<filter id="filter1_d_32_845" x="873" y="106" width="568" height="38" filterUnits="userSpaceOnUse" color-interpolation-filters="sRGB">
<feFlood flood-opacity="0" result="BackgroundImageFix"/>
<feColorMatrix in="SourceAlpha" type="matrix" values="0 0 0 0 0 0 0 0 0 0 0 0 0 0 0 0 0 0 127 0" result="hardAlpha"/>
<feOffset dy="4"/>
<feGaussianBlur stdDeviation="2"/>
<feComposite in2="hardAlpha" operator="out"/>
<feColorMatrix type="matrix" values="0 0 0 0 0 0 0 0 0 0 0 0 0 0 0 0 0 0 0.25 0"/>
<feBlend mode="normal" in2="BackgroundImageFix" result="effect1_dropShadow_32_845"/>
<feBlend mode="normal" in="SourceGraphic" in2="effect1_dropShadow_32_845" result="shape"/>
</filter>
<filter id="filter2_d_32_845" x="278" y="105" width="278" height="38" filterUnits="userSpaceOnUse" color-interpolation-filters="sRGB">
<feFlood flood-opacity="0" result="BackgroundImageFix"/>
<feColorMatrix in="SourceAlpha" type="matrix" values="0 0 0 0 0 0 0 0 0 0 0 0 0 0 0 0 0 0 127 0" result="hardAlpha"/>
<feOffset dy="4"/>
<feGaussianBlur stdDeviation="2"/>
<feComposite in2="hardAlpha" operator="out"/>
<feColorMatrix type="matrix" values="0 0 0 0 0 0 0 0 0 0 0 0 0 0 0 0 0 0 0.25 0"/>
<feBlend mode="normal" in2="BackgroundImageFix" result="effect1_dropShadow_32_845"/>
<feBlend mode="normal" in="SourceGraphic" in2="effect1_dropShadow_32_845" result="shape"/>
</filter>
<filter id="filter3_d_32_845" x="567" y="105" width="278" height="38" filterUnits="userSpaceOnUse" color-interpolation-filters="sRGB">
<feFlood flood-opacity="0" result="BackgroundImageFix"/>
<feColorMatrix in="SourceAlpha" type="matrix" values="0 0 0 0 0 0 0 0 0 0 0 0 0 0 0 0 0 0 127 0" result="hardAlpha"/>
<feOffset dy="4"/>
<feGaussianBlur stdDeviation="2"/>
<feComposite in2="hardAlpha" operator="out"/>
<feColorMatrix type="matrix" values="0 0 0 0 0 0 0 0 0 0 0 0 0 0 0 0 0 0 0.25 0"/>
<feBlend mode="normal" in2="BackgroundImageFix" result="effect1_dropShadow_32_845"/>
<feBlend mode="normal" in="SourceGraphic" in2="effect1_dropShadow_32_845" result="shape"/>
</filter>
<filter id="filter4_d_32_845" x="-4" y="172" width="238" height="65" filterUnits="userSpaceOnUse" color-interpolation-filters="sRGB">
<feFlood flood-opacity="0" result="BackgroundImageFix"/>
<feColorMatrix in="SourceAlpha" type="matrix" values="0 0 0 0 0 0 0 0 0 0 0 0 0 0 0 0 0 0 127 0" result="hardAlpha"/>
<feOffset dy="4"/>
<feGaussianBlur stdDeviation="2"/>
<feComposite in2="hardAlpha" operator="out"/>
<feColorMatrix type="matrix" values="0 0 0 0 0 0 0 0 0 0 0 0 0 0 0 0 0 0 0.22 0"/>
<feBlend mode="normal" in2="BackgroundImageFix" result="effect1_dropShadow_32_845"/>
<feBlend mode="normal" in="SourceGraphic" in2="effect1_dropShadow_32_845" result="shape"/>
</filter>
<filter id="filter5_d_32_845" x="11" y="252" width="34.001" height="32" filterUnits="userSpaceOnUse" color-interpolation-filters="sRGB">
<feFlood flood-opacity="0" result="BackgroundImageFix"/>
<feColorMatrix in="SourceAlpha" type="matrix" values="0 0 0 0 0 0 0 0 0 0 0 0 0 0 0 0 0 0 127 0" result="hardAlpha"/>
<feOffset dy="4"/>
<feGaussianBlur stdDeviation="2"/>
<feComposite in2="hardAlpha" operator="out"/>
<feColorMatrix type="matrix" values="0 0 0 0 0 0 0 0 0 0 0 0 0 0 0 0 0 0 0.25 0"/>
<feBlend mode="normal" in2="BackgroundImageFix" result="effect1_dropShadow_32_845"/>
<feBlend mode="normal" in="SourceGraphic" in2="effect1_dropShadow_32_845" result="shape"/>
</filter>
<clipPath id="clip0_32_845">
<rect width="1485" height="783" fill="white"/>
</clipPath>
</defs>
</svg>
